<svg width="155" height="155" viewBox="0 0 155 155" fill="none" xmlns="http://www.w3.org/2000/svg">
<circle cx="77.5" cy="77.5" r="76" fill="#39D0FF" stroke="white" stroke-width="3"/>
<g filter="url(#filter0_d_66_240)">
<path d="M49.9573 105.88C45.7573 105.88 43.6573 104.47 43.6573 101.65C43.6573 100.39 44.0173 99.37 44.7373 98.59C45.5773 97.69 46.5373 97.24 47.6173 97.24C48.3973 97.24 48.7873 97.45 48.7873 97.87C48.7873 98.23 48.6973 98.41 48.5173 98.41C48.4573 98.41 48.2473 98.35 47.8873 98.23C47.7073 98.17 47.4973 98.14 47.2573 98.14C46.5973 98.14 46.0273 98.47 45.5473 99.13C45.0673 99.67 44.8273 100.33 44.8273 101.11C44.8273 102.31 45.4873 103.27 46.8073 103.99C48.0073 104.53 49.2373 104.8 50.4973 104.8C55.1173 104.8 59.3473 102.97 63.1873 99.31C64.6873 97.93 66.1573 96.22 67.5973 94.18C69.0973 92.14 70.5673 89.77 72.0073 87.07C72.0073 87.01 72.5173 85.9 73.5373 83.74C74.6173 81.58 76.1773 78.4 78.2173 74.2C83.2573 63.88 88.9573 56.5 95.3173 52.06C91.6573 50.68 87.0973 49.99 81.6373 49.99C78.5173 49.99 75.5773 50.26 72.8173 50.8C70.0573 51.28 67.4473 52.03 64.9873 53.05C59.1673 55.39 54.8473 58.9 52.0273 63.58C50.2873 66.52 49.4173 69.43 49.4173 72.31C49.4173 75.37 50.3773 77.92 52.2973 79.96C54.2173 82.06 56.7073 83.11 59.7673 83.11C63.1873 83.11 66.2173 81.88 68.8573 79.42C71.4973 76.9 72.8173 73.96 72.8173 70.6C72.8173 68.26 72.1873 66.34 70.9273 64.84C69.6073 63.28 67.7773 62.5 65.4373 62.5C63.6973 62.5 62.1373 63.04 60.7573 64.12C59.3773 65.32 58.6873 66.82 58.6873 68.62C58.6873 70.06 59.4673 70.78 61.0273 70.78C61.1473 70.78 61.2373 70.69 61.2973 70.51C61.4773 70.33 61.6273 70.24 61.7473 70.24C61.8673 70.3 61.9273 70.39 61.9273 70.51C61.9273 71.11 61.5973 71.41 60.9373 71.41C58.8973 71.41 57.8773 70.45 57.8773 68.53C57.8773 66.61 58.7473 64.93 60.4873 63.49C62.1673 62.11 63.9673 61.42 65.8873 61.42C68.4673 61.42 70.5673 62.26 72.1873 63.94C73.8673 65.62 74.7073 67.75 74.7073 70.33C74.7073 74.29 73.1473 77.62 70.0273 80.32C67.0873 82.84 63.6073 84.1 59.5873 84.1C55.8073 84.1 52.7173 82.99 50.3173 80.77C47.7373 78.37 46.4473 75.4 46.4473 71.86C46.4473 69.34 47.0773 66.88 48.3373 64.48C51.0973 59.02 55.9573 54.94 62.9173 52.24C68.6173 50.02 75.0973 48.91 82.3573 48.91C87.7573 48.91 92.6173 49.6 96.9373 50.98C101.017 48.58 104.707 47.38 108.007 47.38C108.487 47.38 108.727 47.44 108.727 47.56C108.727 47.74 108.637 47.83 108.457 47.83C108.217 47.83 107.857 47.86 107.377 47.92C106.957 47.92 106.477 47.95 105.937 48.01C103.177 48.37 100.567 49.51 98.1073 51.43C104.527 53.89 107.737 57.46 107.737 62.14C107.737 66.52 105.487 70.15 100.987 73.03C97.3873 75.31 93.0973 76.72 88.1173 77.26C88.7773 79.06 89.2873 81.46 89.6473 84.46C89.8273 86.08 89.9773 87.7 90.0973 89.32C90.2173 90.94 90.3973 92.56 90.6373 94.18C91.2973 98.92 92.4673 101.59 94.1473 102.19C94.9273 102.49 95.6473 102.64 96.3073 102.64C98.9473 102.64 101.797 100.87 104.857 97.33C107.497 94.15 109.207 91.09 109.987 88.15L110.167 88.06L110.617 88.24V88.42C109.477 91.84 107.467 95.23 104.587 98.59C101.167 102.43 97.8973 104.35 94.7773 104.35C93.4573 104.35 92.2273 103.93 91.0873 103.09C88.9873 101.71 87.5773 99.31 86.8573 95.89C86.6773 94.87 86.5273 93.58 86.4073 92.02C86.2873 90.46 86.1973 88.57 86.1373 86.35C86.1373 82.21 85.8973 79.27 85.4173 77.53H83.6173C83.1973 77.53 82.7773 77.53 82.3573 77.53C81.9973 77.47 81.6673 77.41 81.3673 77.35C78.1273 85.15 74.9473 90.97 71.8273 94.81C67.3273 100.21 61.8073 103.66 55.2673 105.16C53.2273 105.64 51.4573 105.88 49.9573 105.88ZM87.6673 76.18C91.8073 75.46 95.4073 74.02 98.4673 71.86C102.067 69.16 103.867 65.89 103.867 62.05C103.867 57.91 101.467 54.76 96.6673 52.6C94.3873 54.58 92.1373 57.22 89.9173 60.52C87.7573 63.82 85.6273 67.78 83.5273 72.4C85.3873 73.12 86.7673 74.38 87.6673 76.18ZM83.7073 76.45H84.3373L85.1473 76.36C84.6073 74.98 83.9173 74.02 83.0773 73.48C82.8973 73.78 82.7173 74.17 82.5373 74.65C82.3573 75.13 82.1173 75.7 81.8173 76.36C82.1173 76.36 82.4173 76.39 82.7173 76.45C83.0773 76.45 83.4073 76.45 83.7073 76.45Z" fill="white"/>
</g>
<g filter="url(#filter1_d_66_240)">
<path d="M50.1926 107.88C45.574 107.993 43.2333 106.759 43.1704 104.18C43.1002 101.301 44.9845 99.8145 48.8234 99.7209C50.6228 99.677 54.9372 100.622 61.7663 102.556C63.3522 101.137 64.9008 99.419 66.4121 97.4015C67.9819 95.3227 69.4529 92.8861 70.8252 90.0918C71.9693 87.7832 73.0527 85.4461 74.0753 83.0805C75.0965 80.6549 76.1484 78.2585 77.2311 75.8915C82.0736 65.2703 87.7391 57.6299 94.2275 52.9704C92.3549 52.4759 90.2153 52.1079 87.8087 51.8665C85.4621 51.6236 82.8792 51.5366 80.06 51.6053C76.9409 51.6813 74.0084 52.0229 71.2624 52.63C68.5149 53.1771 65.9239 53.9905 63.4895 55.0702C57.7283 57.5513 53.4951 61.1656 50.79 65.9129C49.1222 68.8944 48.3234 71.8248 48.3935 74.7039C48.4681 77.763 49.49 80.2889 51.4591 82.2815C53.4297 84.334 55.9446 85.323 59.0037 85.2485C62.4227 85.1651 65.4218 83.8616 68.0011 81.338C70.5789 78.7544 71.8268 75.7831 71.7449 72.4241C71.6879 70.0848 71.0113 68.1808 69.7151 66.7119C68.3575 65.1845 66.509 64.4494 64.1697 64.5064C62.4302 64.5488 60.8838 65.1267 59.5306 66.24C58.1802 67.4733 57.527 68.9896 57.5709 70.7891C57.606 72.2287 58.4033 72.9294 59.9628 72.8914C60.0828 72.8885 60.1706 72.7963 60.2261 72.6149C60.4017 72.4306 60.5495 72.337 60.6694 72.334C60.7909 72.3911 60.853 72.4796 60.856 72.5996C60.8706 73.1994 60.548 73.5073 59.8882 73.5234C57.8488 73.5731 56.8057 72.6383 56.7589 70.7189C56.7121 68.7994 57.5409 67.0987 59.2453 65.6168C60.8912 64.1962 62.6738 63.4626 64.5932 63.4158C67.1725 63.3529 69.2923 64.1414 70.9528 65.7815C72.6732 67.42 73.5649 69.5289 73.6278 72.1082C73.7243 76.067 72.2459 79.434 69.1926 82.2092C66.3149 84.8002 62.8667 86.1446 58.8479 86.2426C55.069 86.3347 51.9529 85.3003 49.4995 83.1395C46.8617 80.8031 45.4997 77.8654 45.4135 74.3264C45.352 71.8072 45.9219 69.3326 47.123 66.9026C49.7491 61.3769 54.5083 57.1797 61.4004 54.3109C67.0446 51.9526 73.4956 50.685 80.7535 50.5081C86.4518 50.3692 91.4749 50.8469 95.8229 51.9412C97.716 50.8148 99.5257 49.9604 101.252 49.3782C102.977 48.7359 104.679 48.3943 106.359 48.3534C106.838 48.3417 107.08 48.3958 107.083 48.5158C107.087 48.6957 106.999 48.7879 106.819 48.7923C106.579 48.7981 106.25 48.8362 105.832 48.9064C105.472 48.9152 105.053 48.9554 104.574 49.0271C101.941 49.3313 99.3867 50.4139 96.9113 52.2748C103.259 54.1607 106.492 57.5329 106.611 62.3914C106.624 62.9313 106.577 63.4726 106.47 64.0153C106.422 64.4966 106.344 64.9787 106.235 65.4615C105.59 68.5381 102.772 71.0976 97.7801 73.1398C94.2119 74.4872 90.1828 75.3957 85.6929 75.8652L88.4821 75.7972C99.0989 75.5384 104.496 79.0379 104.673 86.2958C104.774 90.4345 103.273 94.1322 100.172 97.3887C97.4799 100.215 93.9914 102.371 89.7063 103.856C87.9814 104.498 86.1622 104.962 84.2486 105.249C82.3365 105.596 80.3608 105.794 78.3214 105.844C75.8621 105.904 73.3077 105.756 70.6583 105.4C68.0688 105.043 65.4135 104.448 62.6924 103.614C57.9581 106.37 53.7916 107.792 50.1926 107.88ZM81.7275 75.6918C94.4145 74.1822 101.263 70.7742 102.274 65.468C102.487 64.3225 102.579 63.1799 102.551 62.0403C102.449 57.8415 100.128 54.9572 95.5881 53.3874C90.4763 57.8933 85.8562 65.3281 81.7275 75.6918ZM75.0516 104.663C81.2298 104.513 86.6823 102.909 91.4093 99.853C97.1442 96.2922 99.9429 91.6926 99.8054 86.0543C99.6402 79.2763 94.6091 76.008 84.712 76.2492C84.1122 76.2639 83.5431 76.3077 83.0047 76.3809C82.4649 76.3941 81.9557 76.4365 81.4773 76.5082C78.7064 83.4778 76.4863 88.4233 74.817 91.3449C71.9348 96.2166 68.1888 100.119 63.579 103.052C67.7484 104.211 71.5727 104.748 75.0516 104.663ZM50.8049 107.145C54.4038 107.057 57.8228 105.743 61.0619 103.204C58.4607 102.367 56.1653 101.763 54.1757 101.391C52.246 101.018 50.6813 100.846 49.4817 100.875C45.8228 100.964 44.0197 102.089 44.0723 104.248C44.122 106.287 46.3662 107.253 50.8049 107.145Z" fill="white"/>
</g>
<defs>
<filter id="filter0_d_66_240" x="39.6573" y="47.3799" width="74.96" height="66.5" filterUnits="userSpaceOnUse" color-interpolation-filters="sRGB">
<feFlood flood-opacity="0" result="BackgroundImageFix"/>
<feColorMatrix in="SourceAlpha" type="matrix" values="0 0 0 0 0 0 0 0 0 0 0 0 0 0 0 0 0 0 127 0" result="hardAlpha"/>
<feOffset dy="4"/>
<feGaussianBlur stdDeviation="2"/>
<feComposite in2="hardAlpha" operator="out"/>
<feColorMatrix type="matrix" values="0 0 0 0 0 0 0 0 0 0 0 0 0 0 0 0 0 0 0.25 0"/>
<feBlend mode="normal" in2="BackgroundImageFix" result="effect1_dropShadow_66_240"/>
<feBlend mode="normal" in="SourceGraphic" in2="effect1_dropShadow_66_240" result="shape"/>
</filter>
<filter id="filter1_d_66_240" x="37.8478" y="48.3359" width="74.6476" height="67.7129" filterUnits="userSpaceOnUse" color-interpolation-filters="sRGB">
<feFlood flood-opacity="0" result="BackgroundImageFix"/>
<feColorMatrix in="SourceAlpha" type="matrix" values="0 0 0 0 0 0 0 0 0 0 0 0 0 0 0 0 0 0 127 0" result="hardAlpha"/>
<feOffset dy="4"/>
<feGaussianBlur stdDeviation="2"/>
<feComposite in2="hardAlpha" operator="out"/>
<feColorMatrix type="matrix" values="0 0 0 0 0 0 0 0 0 0 0 0 0 0 0 0 0 0 0.25 0"/>
<feBlend mode="normal" in2="BackgroundImageFix" result="effect1_dropShadow_66_240"/>
<feBlend mode="normal" in="SourceGraphic" in2="effect1_dropShadow_66_240" result="shape"/>
</filter>
</defs>
</svg>
