<svg width="401" height="555" viewBox="0 0 401 555" fill="none" xmlns="http://www.w3.org/2000/svg">
<rect x="0.432129" y="0.320923" width="399.915" height="553.729" fill="#39D0FF"/>
<circle cx="338.822" cy="61.8462" r="30.7627" fill="#F2F2F2"/>
<line x1="77.3389" y1="59.3464" x2="200.39" y2="59.3464" stroke="#F2F2F2" stroke-width="5"/>
<line x1="77.3389" y1="90.109" x2="246.534" y2="90.109" stroke="#F2F2F2" stroke-width="5"/>
<line x1="31.1948" y1="197.778" x2="154.246" y2="197.778" stroke="#F2F2F2" stroke-width="5"/>
<line x1="31.1948" y1="243.922" x2="154.246" y2="243.922" stroke="#F2F2F2" stroke-width="5"/>
<line x1="31.1948" y1="336.211" x2="154.246" y2="336.211" stroke="#F2F2F2" stroke-width="5"/>
<line x1="31.1948" y1="290.067" x2="154.246" y2="290.067" stroke="#F2F2F2" stroke-width="5"/>
<line x1="31.1948" y1="382.354" x2="154.246" y2="382.354" stroke="#F2F2F2" stroke-width="5"/>
<line x1="246.534" y1="197.778" x2="369.584" y2="197.778" stroke="#F2F2F2" stroke-width="5"/>
<line x1="246.534" y1="243.922" x2="369.584" y2="243.922" stroke="#F2F2F2" stroke-width="5"/>
<line x1="246.534" y1="336.211" x2="369.584" y2="336.211" stroke="#F2F2F2" stroke-width="5"/>
<line x1="246.534" y1="290.067" x2="369.584" y2="290.067" stroke="#F2F2F2" stroke-width="5"/>
<line x1="246.534" y1="382.354" x2="369.584" y2="382.354" stroke="#F2F2F2" stroke-width="5"/>
<line x1="31.1948" y1="428.499" x2="154.246" y2="428.499" stroke="#F2F2F2" stroke-width="5"/>
<line x1="31.1948" y1="520.787" x2="154.246" y2="520.787" stroke="#F2F2F2" stroke-width="5"/>
<line x1="31.1948" y1="474.643" x2="154.246" y2="474.643" stroke="#F2F2F2" stroke-width="5"/>
</svg>
